<?xml version="1.0" encoding="UTF-8"?>
<svg xmlns="http://www.w3.org/2000/svg" viewBox="0 0 1399.37 1057.73">
  <path d="M1176.81,312.92l-31.01-43.42c-7.62-10.67-19.5-17.17-32.6-17.83-11.31-.57-23.81-1.25-34.54-1.84-27.18-1.49-72.37-.32-112.23,.71-18.73,.48-36.42,.94-49.59,1.04-.16,0-.32,0-.48,0-16.13,0-31.23-5.82-41.5-16.02-7.84-7.78-12.16-17.61-12.16-27.65V59.95c0-10.61,4.69-20.92,13.2-29.04,10.52-10.03,25.45-15.36,40.97-14.63,6.99,.33,14.91,.92,23.3,1.54,24.48,1.82,54.96,4.08,86.14,1.74,49.61-3.72,144.46-6.93,193.51-3.28,31.34,2.33,54.08,20.69,54.08,43.67V207.91c0,11.48-5.54,21.76-16.03,29.73-9.67,7.34-23.17,12.29-38.03,13.93-6.66,.74-13.31,1.27-20.32,1.62-12.74,.64-22.71,11.16-22.71,23.94v35.78Zm-131.4-65.22c12.59,0,24.01,.2,33.32,.71,10.73,.59,23.23,1.27,34.53,1.84,13.53,.68,25.81,7.4,33.69,18.42l28.43,39.8v-31.34c0-13.55,10.57-24.69,24.07-25.37,6.98-.35,13.6-.88,20.23-1.61,26.28-2.9,52.79-17.09,52.79-42.25V59.95c0-22.21-22.19-39.98-52.76-42.25-48.98-3.64-143.73-.43-193.3,3.29-31.29,2.34-61.82,.08-86.35-1.74-8.38-.62-16.29-1.21-23.26-1.54-15.13-.72-29.68,4.47-39.92,14.24-8.23,7.85-12.76,17.79-12.76,28V207.91c0,9.66,4.17,19.13,11.74,26.64,10,9.93,24.74,15.61,40.49,15.61,.16,0,.31,0,.47,0,13.16-.09,30.84-.55,49.56-1.04,26.25-.68,54.81-1.42,79.03-1.42Z" fill="#131f2d"/>
  <path d="M1231.43,36.3c-48.85-3.63-143.53-.45-193.41,3.28-41.94,3.14-82.17-1.99-109.52-3.28-29.45-1.4-53.42,19.23-53.42,42.96V227.21c0,23.72,23.92,43.17,53.42,42.96,40.47-.29,121.54-3.96,161.87-1.75,12.57,.69,24.02,1.31,34.54,1.84,13.24,.67,25.44,7.34,33.14,18.13l29.72,41.61v-33.56c0-13.13,10.28-23.99,23.39-24.65,6.97-.35,13.64-.88,20.27-1.61,29.23-3.23,53.42-19.23,53.42-42.96V79.26c0-23.72-24.04-40.78-53.42-42.96Z" fill="#d1e7dd"/>
  <path d="M672.2,.73c-22.18-1.65-65.17-.2-87.82,1.49-19.04,1.43-37.31-.9-49.73-1.49-13.37-.63-24.26,8.73-24.26,19.51V87.41c0,10.77,10.86,19.6,24.26,19.51,18.37-.13,55.19-1.8,73.5-.79,5.71,.31,10.91,.59,15.68,.83,6.01,.3,11.55,3.33,15.05,8.23l13.5,18.89v-15.24c0-5.96,4.67-10.9,10.62-11.19,3.17-.16,6.19-.4,9.21-.73,13.27-1.47,24.26-8.73,24.26-19.51V20.23c0-10.77-10.92-18.52-24.26-19.51Z" fill="#8cc3a9"/>
  <g>
    <path d="M943.01,129.81c0-1.43,1.07-2.63,2.49-2.79,2.67-.3,6.29-.53,9.81-.53,5.8,0,9.36,.56,12.48,2.37,2.93,1.56,4.99,4.43,4.99,8.3s-2.18,7.12-6.93,8.93v.12c4.81,1.25,8.36,4.93,8.36,10.3,0,3.87-1.75,6.87-4.37,8.99-3.06,2.43-8.18,3.81-16.54,3.81-3.14,0-5.74-.14-7.76-.33-1.44-.13-2.54-1.35-2.54-2.8v-36.37Zm9.42,10.85c0,1.55,1.26,2.81,2.81,2.81h.31c5.06,0,7.68-2.06,7.68-5.18s-2.43-4.87-6.74-4.87c-.49,0-.93,0-1.33,.02-1.52,.05-2.73,1.29-2.73,2.81v4.41Zm0,18.79c0,1.55,1.25,2.8,2.8,2.81,.28,0,.57,0,.88,0,4.31,0,8.11-1.69,8.11-6.12,0-4.18-3.81-5.87-8.55-5.87h-.44c-1.55,0-2.81,1.26-2.81,2.81v6.37Z" fill="#a3b2a8"/>
    <path d="M1019.21,147.4c0,13.86-8.3,22.16-20.66,22.16s-19.79-9.42-19.79-21.47,8.11-22.03,20.47-22.03,19.97,9.67,19.97,21.35Zm-30.4,.5c0,8.3,3.87,14.11,10.24,14.11s10.11-6.12,10.11-14.29c0-7.61-3.56-14.11-10.11-14.11s-10.24,6.12-10.24,14.29Z" fill="#a3b2a8"/>
    <path d="M1025.45,166.06v-36.45c0-1.55,1.26-2.81,2.81-2.81h6.67c1.01,0,1.94,.54,2.44,1.42l7.93,13.99c2.5,4.43,4.93,9.67,6.87,14.42h.13c-.56-5.55-.75-11.23-.75-17.6v-9.42c0-1.55,1.26-2.81,2.81-2.81h3.12c1.55,0,2.81,1.26,2.81,2.81v36.45c0,1.55-1.26,2.81-2.81,2.81h-5.52c-1.02,0-1.96-.55-2.46-1.45l-8.19-14.78c-2.5-4.49-5.31-9.92-7.3-14.85h-.25c.31,5.62,.44,11.55,.44,18.41v9.86c0,1.55-1.26,2.81-2.81,2.81h-3.12c-1.55,0-2.81-1.26-2.81-2.81Z" fill="#a3b2a8"/>
    <path d="M1079.56,126.8h3.87c1.55,0,2.81,1.26,2.81,2.81v23.78c0,11.98-5.74,16.17-14.92,16.17-1.34,0-2.9-.13-4.35-.37-1.49-.25-2.5-1.65-2.3-3.15l.3-2.14c.21-1.54,1.63-2.59,3.17-2.39,.67,.09,1.37,.13,2.11,.13,3.99,0,6.49-1.81,6.49-8.3v-23.72c0-1.55,1.26-2.81,2.81-2.81Z" fill="#a3b2a8"/>
    <path d="M1132.68,147.4c0,13.86-8.3,22.16-20.66,22.16s-19.79-9.42-19.79-21.47,8.11-22.03,20.47-22.03,19.97,9.67,19.97,21.35Zm-30.4,.5c0,8.3,3.87,14.11,10.24,14.11s10.11-6.12,10.11-14.29c0-7.61-3.56-14.11-10.11-14.11s-10.24,6.12-10.24,14.29Z" fill="#a3b2a8"/>
    <path d="M1145.6,126.8c1.55,0,2.81,1.26,2.81,2.81v21.35c0,7.3,2.81,10.99,7.61,10.99s7.74-3.5,7.74-10.99v-21.35c0-1.55,1.26-2.81,2.81-2.81h3.87c1.55,0,2.81,1.26,2.81,2.81v20.78c0,12.98-6.55,19.16-17.54,19.16s-16.79-5.93-16.79-19.29v-20.66c0-1.55,1.26-2.81,2.81-2.81h3.87Z" fill="#a3b2a8"/>
    <path d="M1181.48,129.82c0-1.43,1.07-2.63,2.49-2.79,2.8-.32,6.31-.53,10.18-.53,6.24,0,10.61,.94,13.61,3.31,2.56,2,3.93,4.99,3.93,8.86,0,5.31-3.81,8.99-7.43,10.3v.19c2.93,1.19,4.56,3.93,5.62,7.8,.78,2.87,1.54,5.99,2.2,8.37,.49,1.79-.86,3.55-2.71,3.55h-3.94c-1.2,0-2.27-.76-2.66-1.9-.59-1.75-1.33-4.42-2.13-7.9-1.19-5.31-3-6.68-6.93-6.74h0c-1.55,0-2.81,1.26-2.81,2.81v10.92c0,1.55-1.26,2.81-2.81,2.81h-3.81c-1.55,0-2.81-1.26-2.81-2.81v-36.25Zm9.42,12.84c0,1.55,1.26,2.81,2.81,2.81h.94c4.74,0,7.55-2.37,7.55-6.05s-2.62-5.8-6.99-5.8c-.6,0-1.13,0-1.61,.02-1.51,.05-2.7,1.3-2.7,2.81v6.22Z" fill="#a3b2a8"/>
  </g>
  <path d="M1010.08,793.68c-19.26,1.17-47.6,5.78-77.13,2.95-35.13-3.36-101.8-6.21-136.21-2.95-20.69,1.96-37.62,17.29-37.62,38.62v133.02c0,21.33,17.04,35.72,37.62,38.62,10.26,1.45,20.66,2.02,33.15,1.92,9.09-.07,16.51,7.25,16.51,16.34v35.53l32.85-45.99c3.9-5.46,10.03-8.89,16.72-9.36,.04,0,.07,0,.11,0,28.4-1.99,85.49,1.31,113.99,1.57,20.78,.19,37.62-17.29,37.62-38.62v-133.02c0-21.33-16.88-39.87-37.62-38.62Z" fill="#8cc3a9"/>
  <g>
    <path d="M824.55,877.42v10.02c0,2.12,1.72,3.84,3.84,3.84h9.48c2.12,0,3.84-1.72,3.84-3.84v-10.02c0-2.12,1.72-3.84,3.84-3.84h2.71c2.12,0,3.84,1.72,3.84,3.84v38.38c0,2.12-1.72,3.84-3.84,3.84h-2.71c-2.12,0-3.84-1.72-3.84-3.84v-11.6c0-2.12-1.72-3.84-3.84-3.84h-9.48c-2.12,0-3.84,1.72-3.84,3.84v11.6c0,2.12-1.72,3.84-3.84,3.84h-2.71c-2.12,0-3.84-1.72-3.84-3.84v-38.38c0-2.12,1.72-3.84,3.84-3.84h2.71c2.12,0,3.84,1.72,3.84,3.84Z" fill="#eaeaea"/>
    <path d="M903.32,896.13c0,15.17-9.09,24.25-22.61,24.25s-21.66-10.32-21.66-23.5,8.88-24.12,22.41-24.12,21.86,10.59,21.86,23.37Zm-33.27,.55c0,9.09,4.24,15.44,11.2,15.44s11.07-6.7,11.07-15.65c0-8.33-3.89-15.44-11.07-15.44s-11.2,6.69-11.2,15.64Z" fill="#eaeaea"/>
    <path d="M914.05,873.58h2.71c2.12,0,3.84,1.72,3.84,3.84v29.63c0,2.12,1.72,3.84,3.84,3.84h10.64c2.12,0,3.84,1.72,3.84,3.84v1.07c0,2.12-1.72,3.84-3.84,3.84h-21.02c-2.12,0-3.84-1.72-3.84-3.84v-38.38c0-2.12,1.72-3.84,3.84-3.84Z" fill="#eaeaea"/>
    <path d="M955.41,910.62l-1.72,6.2c-.46,1.66-1.97,2.81-3.7,2.81h-2.63c-2.58,0-4.42-2.49-3.67-4.95l11.67-38.38c.49-1.62,1.98-2.72,3.67-2.72h8c1.68,0,3.16,1.09,3.66,2.69l11.96,38.38c.77,2.47-1.08,4.98-3.66,4.98h-3.21c-1.69,0-3.19-1.11-3.67-2.73l-1.91-6.36c-.49-1.62-1.98-2.73-3.67-2.73h-7.42c-1.72,0-3.24,1.15-3.7,2.81Zm7.34-10.6c2.56,0,4.4-2.46,3.68-4.92l-1.43-4.85c-.82-2.73-1.64-6.15-2.32-8.88h-.14c-.68,2.73-1.37,6.22-2.12,8.88l-1.37,4.9c-.68,2.45,1.15,4.87,3.69,4.87h0Z" fill="#eaeaea"/>
  </g>
  <path d="M250.96,545.16c-34.4-3-101.08-.37-136.21,2.72-29.54,2.6-57.87-1.65-77.13-2.72-20.74-1.16-37.62,15.92-37.62,35.57v122.5c0,19.64,16.85,35.74,37.62,35.57,28.5-.24,85.6-3.28,113.99-1.45,.04,0,.07,0,.11,0,6.72,.43,12.93,3.73,17.06,9.05l32.52,41.93v-28.81c0-10.45,8.46-18.96,18.92-18.95,11.43,0,21.15-.53,30.74-1.78,20.58-2.67,37.62-15.92,37.62-35.57v-122.5c0-19.64-16.93-33.76-37.62-35.57Z" fill="#dadcde"/>
  <g>
    <path d="M138.75,669.32c2-8.85,7.39-21.73,13.19-31.7,.17-.29,.51-.41,.82-.3l4.36,1.55c.4,.14,.57,.6,.37,.97-5.45,9.88-10.65,22.78-12.57,31.58-.09,.41-.52,.64-.91,.5l-4.83-1.81c-.32-.12-.51-.45-.43-.79Zm4.49-32.12c-1.78-6.32-3.72-16.63-4.08-19.74-.05-.4,.26-.75,.66-.76l2.63-.07h41.39c.47,0,.8-.46,.64-.91-1.62-4.64-3-9.49-4.15-14.28-.07-.29-.33-.51-.63-.52-.01,0-.02,0-.03,0-.78-.03-.89-1.15-.13-1.35l5.83-1.54c.38-.1,.76,.13,.84,.51,3.21,14.48,8.62,28.87,15.21,37.71,.24,.32,.16,.76-.17,.98-1.22,.8-2.68,2.04-3.71,3.01-.3,.28-.78,.24-1.02-.09-3.39-4.61-6.52-10.54-9.23-17.06-.11-.25-.35-.42-.63-.42h-14.29c-.38,0-.69,.31-.69,.69v54.59c0,1.28,1.04,2.31,2.31,2.31h3.15c1.53,0,3.39,0,5.36-.06,.51-.01,.86,.51,.64,.97-.75,1.61-1.41,3.54-1.77,5.08-.07,.31-.36,.52-.67,.52-12.92-.04-15.35-1.34-15.35-8.14v-55.27c0-.38-.31-.69-.69-.69h-17.57c-.42,0-.75,.38-.68,.8,.77,4.6,1.61,9.27,2.31,12.61,.08,.38-.16,.74-.54,.81l-4.16,.8c-.35,.07-.69-.14-.79-.48Zm44.22,1.28c2.9,11.69,7.61,23.38,13.13,30.59,.26,.34,.16,.81-.21,1.02-1.25,.68-2.75,1.63-3.83,2.46-.3,.23-.73,.18-.96-.12-5.78-7.6-10.81-19.61-13.82-30.98-.07-.27-.3-.47-.58-.5-.12-.01-.23-.03-.34-.05-.7-.15-.71-1.15-.02-1.33l5.79-1.57c.37-.1,.75,.12,.84,.5Zm26.36,48.09h-5.05c-.38,0-.69-.31-.69-.69v-59.66c0-.33-.24-.6-.56-.67-.09-.02-.17-.04-.25-.06-.66-.2-.64-1.14,.02-1.32l.87-.24c.41-.11,.62-.56,.44-.95-3.24-6.92-6.13-14.24-8.6-21.5-.09-.28-.35-.46-.65-.46-.26,0-.51-.03-.74-.09-.65-.18-.63-1.12,.01-1.31l6.21-1.87c.36-.11,.74,.09,.85,.45,5.39,17.28,13.76,34.92,22.52,45.57,.21,.26,.21,.63-.02,.88-1.01,1.14-2.34,2.77-3.21,3.99-.27,.37-.81,.38-1.09,.02-2.79-3.57-5.51-7.63-8.12-12.02-.35-.6-1.27-.35-1.27,.35v48.9c0,.38-.31,.69-.69,.69Z" fill="#b2babf"/>
    <path d="M66.19,639.7v-10.87c0-.2-.09-.39-.25-.52-7.16-5.89-15.2-14.77-20.14-21.76-.08-.12-.19-.2-.33-.25-.15-.05-.3-.12-.45-.19-.49-.23-.53-.92-.07-1.2l4-2.49c.17-.1,.37-.13,.56-.07l.85,.26c.07,.02,.13,.03,.2,.03h40.99c.38,0,.69,.31,.69,.69v4.67c0,.38-.31,.69-.69,.69H56.73c-.56,0-.89,.64-.55,1.09,3.77,5,8.57,10.43,13.16,14.35,.14,.12,.31,.17,.49,.16l2.16-.13c.39-.02,.73,.29,.73,.68v14.88c0,.38,.31,.69,.69,.69h22.1c.38,0,.69,.31,.69,.69v4.86c0,.38-.31,.69-.69,.69h-22.1c-.38,0-.69,.31-.69,.69v31.13c0,2.01,.96,2.01,4.22,2.01,2.47,0,6.23-.08,10.39-.17,.5-.01,.85,.5,.64,.96-.72,1.6-1.43,3.51-1.81,4.93-.08,.3-.35,.5-.66,.5-16.48,.16-19.3-1.04-19.3-8.34v-31.03c0-.38-.31-.69-.69-.69h-21.72c-.38,0-.69-.31-.69-.69v-4.86c0-.38,.31-.69,.69-.69h21.72c.38,0,.69-.31,.69-.69Zm34-21.83h13.82c.44,0,.76-.41,.67-.84-1.32-5.94-2.56-11.68-3.55-16.79-.05-.28-.27-.49-.55-.54-.93-.15-1.38-.51-1.46-1.1l7.22-.88c.36-.04,.69,.19,.76,.55,1.09,5.82,2.36,12.3,3.79,19.05,.07,.32,.35,.55,.67,.55h9.68c.38,0,.69,.31,.69,.69v4.67c0,.38-.31,.69-.69,.69h-8.04c-.44,0-.77,.41-.67,.84,2.67,11.82,5.49,23.38,7.81,31.6,.09,.31-.06,.63-.34,.79l-4.22,2.22c-.39,.2-.86,0-.98-.43l-.68-2.51c-.12-.44-.63-.65-1.02-.41-3.23,1.98-6.51,4.18-9.66,6.54-.28,.21-.36,.6-.19,.9,4.57,8.04,10.24,13.95,16.94,17.73,.39,.22,.47,.73,.17,1.06-1.07,1.17-2.29,2.74-3.08,4.04-.2,.33-.62,.43-.95,.23-7.19-4.45-13.26-10.63-17.97-18.94-.21-.37-.71-.47-1.03-.19-3.64,3.02-6.81,6.02-9.07,8.75-.29,.35-.81,.34-1.08-.02l-3.08-4.13c-.19-.25-.19-.6,.01-.84,2.51-3.04,6.23-6.33,10.55-9.7,.25-.19,.33-.52,.21-.81-4.66-10.54-7.65-23.96-8.97-40.61,0-.07-.02-.15-.05-.21l-.22-.51c-.17-.38,.05-.83,.46-.93l2.7-.71c.11-.03,.23-.03,.34,0l.9,.22c.05,.01,.11,.02,.17,.02Zm2.2,6.8c1.33,12.61,3.96,23.21,7.55,31.82,.17,.4,.65,.54,1.01,.3,3.65-2.43,7.37-4.83,11.02-6.86,.27-.15,.41-.46,.33-.76-1.94-7.58-4.04-16.19-5.98-24.74-.07-.31-.35-.53-.67-.53h-12.58c-.41,0-.73,.36-.68,.76Z" fill="#b2babf"/>
  </g>
  <path d="M1013.37,490.64c104.94-63.01,247.32-132.66,286.18-74.59,46.83,69.98-118.97,99.28-248.47,139.82-46.45,14.54-104.59-25.08-37.71-65.24Z" fill="#d5d6da"/>
  <path d="M496.27,683.76c-67.82,81.63-164.36,179.4-212.79,143.02-58.36-43.84,68.91-115.32,163.24-185.59,33.84-25.21,92.76-9.45,49.55,42.57Z" fill="#d5d6da"/>
  <g>
    <path d="M921.97,560.83s420.2-151.94,472.33-21.9c52.13,130.04-312.44,31.51-432.85,80.11l-39.48-58.21Z" fill="#eaeaea"/>
    <path d="M943.77,593.58c82.54-35.08,183.59-44.51,253.82-46.24,76.14-1.88,133.44,4.62,134.01,4.69l.41-3.56c-.57-.07-58.12-6.6-134.51-4.71-70.54,1.74-172.07,11.23-255.14,46.53l1.4,3.3Z" fill="#fff"/>
  </g>
  <g>
    <path d="M529.47,553.94s-31.54,394.6-155.54,388.96c-123.99-5.64,89.16-263.53,94.11-378.46l61.42-10.5Z" fill="#eaeaea"/>
    <path d="M495.06,559.51c-1.98,79.43-31.43,164.39-55.78,221.66-26.4,62.1-52.66,105.92-52.92,106.36l2.72,1.64c.26-.44,26.63-44.45,53.12-106.75,24.46-57.53,54.04-142.89,56.03-222.83l-3.17-.08Z" fill="#fff"/>
  </g>
  <g>
    <path d="M1169.39,850.81c-31.84-28.78-79.35,13.91-97.66-31.79-15.46-38.67-14.42-43.6-32.04-48.18-6.04-1.57-12.28-2.18-18.52-2-7.48,.22-19.61-1.02-28.52-9.74-54.43-53.26-24.12-201.26,71.17-173.34,6.88,2.02,13.06,7.71,19.53,14.27,35.07,35.64,25.62,61.36,95.61,59.03,70.01-2.33,32.99,89.26,54.69,114.46,21.7,25.2,46.8,43.12,33.34,84.56-13.49,41.46-65.78,21.53-97.59-7.27Z" fill="#d5d6da"/>
    <g opacity=".5">
      <path d="M1012.19,652.23l.98-2.65c1.17,.43,118.21,45.38,249.18,219.14l-2.25,1.7c-130.48-173.11-246.74-217.76-247.9-218.19Z" fill="#fff"/>
      <path d="M1159.35,713.21c4.25-38.37,17.96-54.42,18.54-55.09l2.13,1.86c-.14,.16-13.72,16.15-17.86,53.54l-2.81-.31Z" fill="#fff"/>
      <path d="M1137.51,735c6.84-14.83,23.92-26.15,49.39-32.73,19.07-4.93,36.38-5.51,36.55-5.52l.09,2.82c-.68,.02-67.73,2.51-83.46,36.61l-2.56-1.18Z" fill="#fff"/>
      <path d="M1174.88,778.65c.33-4.44,.76-7.02,.78-7.14l2.78,.49c-.1,.54-9.15,54.94,25.74,100.59l-2.24,1.71c-28.12-36.78-28.29-79.11-27.06-95.65Z" fill="#fff"/>
      <path d="M1138.29,839.63c4.24-19.17,13.93-30.73,21.31-37.05,8.04-6.88,15.01-9.17,15.31-9.27l.87,2.69c-.27,.09-26.97,9.14-34.73,44.24l-2.76-.61Z" fill="#fff"/>
    </g>
  </g>
  <path d="M1149.7,367.29c10.92-7.32,17.36-4.73,21.3,1.14,3.94,5.87,3.88,12.81-7.05,20.13-19.9,13.33-36.64,9.13-36.64,9.13,0,0,2.2-16.88,22.39-30.41Z" fill="#d5d6da"/>
  <path d="M1268.09,627.42c15.79,3.49,18.97,11.41,17.09,19.91-1.88,8.49-8.1,14.34-23.89,10.85-28.77-6.36-39.27-24.81-39.27-24.81,0,0,16.88-12.4,46.07-5.95Z" fill="#d5d6da"/>
  <g>
    <path d="M588.66,247.72c-9.82,1.21-13.13-1.55-13.6-5.4-.47-3.85,2.06-7.33,11.88-8.54,17.89-2.2,27.4,3.7,27.4,3.7,0,0-7.53,8-25.68,10.24Z" fill="#d5d6da"/>
    <g>
      <path d="M518.28,365.38l-1.67-1.9c2.91-27.36,3.19-61.55-3.6-100.37-.12-.68-.24-1.36-.37-2.04-2.31-12.8-5.4-26.1-9.42-39.8-.86-2.96-1.77-5.94-2.73-8.94l1.78-.57c.94,2.95,1.83,5.88,2.69,8.79,8.03,27.36,12.38,53.07,14.27,76.53,.07,.72,.12,1.44,.17,2.16,1.87,24.9,.99,47.19-1.13,66.15Z" fill="#d5d6da"/>
      <path d="M519.02,299.5l-1.05-1.55c56.41-38.01,63.74-110.62,63.8-111.35l1.86,.17c-.07,.74-7.46,74.21-64.62,112.73Z" fill="#d5d6da"/>
      <path d="M505.2,260.41c-17.46-7.55-26.88-22-26.98-22.17l1.58-1.01c.12,.19,12.19,18.68,34.3,24.24l-.46,1.82c-2.99-.75-5.8-1.73-8.43-2.87Z" fill="#d5d6da"/>
      <path d="M503.49,202.25c5.55,12.14,4.34,17.06,.81,18.67-3.53,1.61-8.04-.69-13.58-12.83-10.1-22.11-8.6-35.72-8.6-35.72,0,0,11.12,7.45,21.37,29.88Z" fill="#d5d6da"/>
      <path d="M485.23,234.67c8.95,9.9,9.28,14.96,6.4,17.56-2.88,2.6-7.87,1.76-16.82-8.14-16.3-18.04-18.97-31.46-18.97-31.46,0,0,12.85,3.75,29.39,22.05Z" fill="#d5d6da"/>
      <path d="M534.63,240.63c-1.75,9.74-5.37,12.08-9.19,11.39-3.82-.69-6.39-4.14-4.64-13.88,3.2-17.74,11.65-25.07,11.65-25.07,0,0,5.41,9.56,2.17,27.56Z" fill="#d5d6da"/>
      <path d="M590.28,181.38c-2.3,13.15-6.08,16.52-9.9,15.85-3.82-.67-6.23-5.12-3.94-18.27,4.19-23.95,13.13-34.31,13.13-34.31,0,0,4.96,12.43,.71,36.73Z" fill="#d5d6da"/>
    </g>
  </g>
  <path d="M495.73,350.32s-117.54-248.04-183.65-213.61,115.59,148.75,147.52,222.04l36.13-8.43Z" fill="#d5d6da"/>
  <g>
    <path d="M487.83,363.59S274.3,93.17,187.26,157.18c-87.03,64.01,191.9,147.69,251.03,228.49l49.54-22.08Z" fill="#b8c1c9"/>
    <path d="M460.22,376.19c-39.82-56.55-102.19-103.82-147.5-133.51-49.12-32.19-89.31-51.23-89.71-51.42l1.18-2.5c.4,.19,40.76,19.31,90.04,51.61,45.51,29.83,108.17,77.33,148.24,134.23l-2.26,1.59Z" fill="#fff"/>
  </g>
  <g>
    <path d="M410.31,544.94c-18.28,27.77-78.54,25.43-102.05,6.64-6.71-5.36-35.56-44.56-99.45-44.47-45.83,.04-44.15-40.02-58.02-71.68-.25-.58-.51-1.15-.77-1.73-5.43-11.77-13.23-22.23-26.71-28.82-14.31-6.97-28.55-16.3-40.58-26.93-1-.88-1.99-1.77-2.96-2.68-23.69-22.01-37.51-48.99-23.46-71.91,.33-.54,.68-1.08,1.04-1.62,2.54-3.75,5.85-7.4,10.02-10.88,43.39-36.25,77.11-14.7,117.95-.74,22.58,7.71,60.91-16,95.93-24.31,.5-.12,1.01-.23,1.5-.35,27.74-6.24,53.21-2.35,66.84,35.17,0,0,0,0,0,.01,.28,.76,.56,1.52,.83,2.26,30.67,82.72,191.82-24.36,59.89,242.03Z" fill="#eaeaea"/>
    <path d="M438.44,498.17l2.71-2.46c-1.08-1.19-111.8-120.41-384.37-194.1l-.96,3.54c271.55,73.42,381.54,191.84,382.62,193.03Z" fill="#fff"/>
  </g>
  <path d="M144.48,249.6c-10.67-4.88-11.75-10.91-9.17-16.55,2.58-5.65,7.85-8.77,18.52-3.89,19.44,8.89,24.16,23.41,24.16,23.41,0,0-13.79,6.06-33.51-2.96Z" fill="#d5d6da"/>
  <path d="M503.55,868.3v-61.07c0-17.43-13.11-31.54-29.85-32.11-17.63-.6-34.03-1.79-50.16-3.64-27.33-3.13-52.17-12.58-69.94-26.59-19.21-15.14-29.36-34.67-29.36-56.46V404.84c0-43.69,41.77-78.62,99.32-83.05,90.56-6.98,265.7-.83,357.31,6.3,57.63,4.48,113.94,.14,159.18-3.34,15.48-1.19,30.1-2.32,43.01-2.95,27.77-1.36,54.74,8.35,73.96,26.65,16.41,15.62,25.45,35.65,25.45,56.4v283.6c0,19.64-8.32,38.71-23.44,53.71-19.01,18.86-46.67,29.59-75.94,29.34-24.31-.18-56.97-1.06-91.55-1.99-73.65-1.98-157.12-4.22-207.34-1.36-26.3,1.5-54.02,3.06-78.62,4.28-14.91,.74-28.43,8.4-37.11,21.02l-64.91,74.86Zm23.73-548.16c-39.33,0-75.53,.9-103.61,3.06-56.79,4.38-98.01,38.71-98.01,81.63v283.6c0,21.34,9.97,40.48,28.82,55.34,17.57,13.85,42.15,23.19,69.22,26.29,16.09,1.84,32.46,3.03,50.04,3.63,17.51,.6,31.23,15.33,31.23,33.53v57.25l62.36-71.92c8.89-12.92,22.82-20.8,38.17-21.57,24.59-1.22,52.31-2.78,78.61-4.28,50.28-2.87,133.79-.62,207.46,1.36,34.57,.93,67.23,1.81,91.53,1.99,.29,0,.58,0,.87,0,28.56,0,55.51-10.52,74.06-28.93,14.84-14.73,23.02-33.45,23.02-52.7V404.84c0-20.35-8.88-40.02-25-55.37-18.94-18.03-45.52-27.61-72.91-26.26l-.03-.71,.03,.71c-12.88,.63-27.5,1.76-42.97,2.95-45.29,3.49-101.66,7.83-159.4,3.34-63.16-4.91-166.04-9.36-253.49-9.36Z" fill="#131f2d"/>
  <path d="M1015.82,313.71c-51.47,2.44-127.18,12.09-206.1,6.18-93.86-7.03-272.02-13.01-363.95-6.18-55.29,4.1-100.53,36.19-100.53,80.84v278.42c0,44.65,45.53,74.76,100.53,80.84,16.51,1.82,33.14,2.98,51.05,3.57,17.36,.57,31.12,14.85,31.12,32.22v76.79l64.81-90.74c8.92-12.48,23.05-20.2,38.38-20.93,23.82-1.14,50.28-2.56,80.1-4.2,75.88-4.17,228.44,2.74,304.59,3.29,55.52,.4,100.53-36.19,100.53-80.84V394.54c0-44.65-45.1-83.46-100.53-80.84Z" fill="#198754"/>
  <g>
    <path d="M506.81,503.55v23.03c0,5.84,4.74,10.58,10.58,10.58h21.67c5.84,0,10.58-4.74,10.58-10.58v-23.03c0-5.84,4.74-10.58,10.58-10.58h4.78c5.84,0,10.58,4.74,10.58,10.58v93.84c0,5.84-4.74,10.58-10.58,10.58h-4.78c-5.84,0-10.58-4.74-10.58-10.58v-26.96c0-5.84-4.74-10.58-10.58-10.58h-21.67c-5.84,0-10.58,4.74-10.58,10.58v26.96c0,5.84-4.74,10.58-10.58,10.58h-4.78c-5.84,0-10.58-4.74-10.58-10.58v-93.84c0-5.84,4.74-10.58,10.58-10.58h4.78c5.84,0,10.58,4.74,10.58,10.58Z" fill="#eaeaea"/>
    <path d="M656.11,559.35h-21.16c-5.84,0-10.58,4.74-10.58,10.58v6.14c0,5.84,4.74,10.58,10.58,10.58h26.11c5.84,0,10.58,4.74,10.58,10.58v.17c0,5.84-4.74,10.58-10.58,10.58h-52.04c-5.84,0-10.58-4.74-10.58-10.58v-93.84c0-5.84,4.74-10.58,10.58-10.58h49.65c5.84,0,10.58,4.74,10.58,10.58v.17c0,5.84-4.74,10.58-10.58,10.58h-23.72c-5.84,0-10.58,4.74-10.58,10.58v2.73c0,5.84,4.74,10.58,10.58,10.58h21.16c5.84,0,10.58,4.74,10.58,10.58h0c0,5.84-4.74,10.58-10.58,10.58Z" fill="#eaeaea"/>
    <path d="M700.13,492.97h4.78c5.84,0,10.58,4.74,10.58,10.58v72c0,5.84,4.74,10.58,10.58,10.58h24.57c5.84,0,10.58,4.74,10.58,10.58v.68c0,5.84-4.74,10.58-10.58,10.58h-50.51c-5.84,0-10.58-4.74-10.58-10.58v-93.84c0-5.84,4.74-10.58,10.58-10.58Z" fill="#eaeaea"/>
    <path d="M787.32,492.97h4.78c5.84,0,10.58,4.74,10.58,10.58v72c0,5.84,4.74,10.58,10.58,10.58h24.57c5.84,0,10.58,4.74,10.58,10.58v.68c0,5.84-4.74,10.58-10.58,10.58h-50.51c-5.84,0-10.58-4.74-10.58-10.58v-93.84c0-5.84,4.74-10.58,10.58-10.58Z" fill="#eaeaea"/>
    <path d="M962.55,549.28c0,37.88-22.69,60.57-56.48,60.57s-54.09-25.77-54.09-58.7,22.18-60.23,55.97-60.23,54.6,26.45,54.6,58.35Zm-83.1,1.36c0,22.69,10.58,38.56,27.98,38.56s27.64-16.72,27.64-39.07c0-20.82-9.73-38.56-27.64-38.56s-27.98,16.72-27.98,39.07Z" fill="#eaeaea"/>
  </g>
  <g>
    <path d="M1080.6,917.37s2.14,13.94,7.82,21.05c3.75,4.68,14.09,13.96,6.73,17.05-5.87,2.47-17.18-8.52-20.85-11.26-3.67-2.73-9.21-7.91-7.98-12.32,2.54-9.14,1.71-20.62,1.71-20.62l12.57,6.1Z" fill="#131f2d"/>
    <path d="M1039.45,906.56s-2.84,13.81,.02,22.45c1.89,5.69,8.36,17.99,.39,18.33-6.36,.27-13.15-13.96-15.64-17.8-2.49-3.84-5.88-10.62-3.2-14.32,5.56-7.68,8.77-18.74,8.77-18.74l9.66,10.09Z" fill="#131f2d"/>
    <path d="M1043.44,916.32c76.23-50.85,72.47-95.4,61.9-112.82-12.27-20.23-31.7-36.23-61.47-43.37-7.94-1.9-15.49-3-21.81-3.64-9.14-.92-17.02,6.38-16.77,15.57l.68,25.94h-.06c12.72-.26,51.31,3.61,61.42,24.18,2.1,4.27-49.21,64.54-47.3,75.36,2.17,12.23,15.95,23.74,23.4,18.77Z" fill="#364154"/>
    <path d="M1072.99,923.94c8.77,.04,15.76-7.32,15.24-16.07-1.15-19.46-4.76-52.57-16.09-77.59-6.43-14.19-16.64-27.09-30.36-38.34-10.35-8.49-22.73-16.07-36.81-22.54-23.41-10.77-40.27-9.26-40.27-9.26l-12.79,18.87c.17,.03-3.59,19.03,23.46,35.97,14.92,9.35,44.93,15.06,57.27,39.21,8.81,17.24,12.18,40.11,13.3,56.09,.54,7.64,6.88,13.57,14.55,13.61l12.52,.06Z" fill="#364154"/>
    <path d="M1055.58,693.25s15.72,24.19,21.36,60.05c3.73,23.73-39.46-3.9-39.46-3.9l-1.92-49.57,20.02-6.58Z" fill="#ff7955"/>
    <path d="M976.99,679.58s11.98-20.47,39.58-14.19c27.61,6.28,38.86,34.48,40.83,102.19,0,0-16.58,29.34-92,23.62-8.36-.63-20.33-1.74-16.25-15.29,7.59-25.19,14.94-75.43,27.83-96.33Z" fill="#a0462d"/>
    <path d="M946.62,685.56l28.4,5.34s49.66,14.69,63.56,14.8c13.9,.12,19.65-10.05,19.65-10.05,0,0-11.21-19.03-34.71-28.01-2.21-.85-4.52-1.6-6.94-2.24-4.07-1.08-8.21-2.02-12.35-2.07-46.87-.54-57.61,22.23-57.61,22.23Z" fill="#a0462d"/>
    <path d="M946.62,685.56c-.61,2.24,5.34,5.97,13.3,8.34,7.96,2.37,14.91,2.48,15.52,.24s-5.34-5.97-13.3-8.34c-7.96-2.37-14.91-2.48-15.52-.24Z" fill="#131f2d"/>
    <path d="M951.52,748.62c12.13,19,36.15,31.14,61.4,30.34l-2.69-20.26c-19.58-3.57-34.58-16.31-37.38-27.05-3.51-13.49-2.31-26.64-.63-36.52,.16-.94-.21-1.88-.97-2.46-2.5-1.92-8.99-5.81-20.58-6.04-1.03-.02-1.94,.67-2.21,1.67-4.85,18.26-7.78,43.36,3.05,60.31Z" fill="#ff7955"/>
    <path d="M964.3,754.62c-.45,0-.91-.09-1.37-.28-1.33-.54-2.52-1.8-3.18-3.38-1.16-2.74-.47-5.67,1.55-6.53,.78-.33,1.67-.32,2.57,.04,1.33,.54,2.52,1.8,3.18,3.38,1.16,2.74,.47,5.67-1.55,6.53-.38,.16-.78,.24-1.19,.24Zm-1.82-9.95c-.35,0-.69,.07-1,.2-1.77,.75-2.34,3.4-1.29,5.9,.62,1.46,1.71,2.63,2.92,3.12,.77,.31,1.53,.33,2.19,.04,1.77-.75,2.34-3.4,1.29-5.89-.62-1.46-1.71-2.63-2.92-3.12-.4-.16-.81-.25-1.19-.25Z" fill="#e9845c"/>
    <g>
      <path d="M1010.23,758.7s18.13-5.77,23.9-3.04c5.76,2.73,11.06,10.57,7.13,9.64s-8.63-3.51-8.63-3.51c0,0,9.77,5.98,7.38,7.66-2.39,1.68-10.84-3.6-10.84-3.6,0,0,11.06,8.04,8.29,8.9s-11.13-5.31-11.13-5.31c0,0,9.99,7.89,6.75,8.81-3.24,.92-8.21-6.58-10.6-4.9s-8.48,9.39-13.96,3.32l1.7-17.97Z" fill="#ff7955"/>
      <path d="M1032.48,761.97s-2.45-2.02-4.23-1.53l-.13-.45c2.02-.58,4.55,1.53,4.66,1.62l-.3,.36Z" fill="#e9845c"/>
      <path d="M1029.02,766.02s-2.39-2.04-5.13-1.82l-.04-.47c2.95-.22,5.38,1.85,5.48,1.93l-.31,.35Z" fill="#e9845c"/>
      <path d="M1026.19,769.61s-2.91-2.42-4.75-1.72l-.17-.44c2.1-.79,5.09,1.7,5.22,1.8l-.3,.36Z" fill="#e9845c"/>
    </g>
    <g>
      <path d="M1032.5,786.91h58.21c1.22,0,2.3-.77,2.69-1.92l12.1-36.12c.61-1.82-.75-3.7-2.69-3.7h-55.98c-2.55,0-4.82,1.62-5.62,4.03l-11.39,34.02c-.61,1.82,.75,3.7,2.69,3.7Z" fill="#131f2d"/>
      <path d="M1036.16,786.91h58.21c1.22,0,2.3-.77,2.69-1.92l12.1-36.12c.61-1.82-.75-3.7-2.68-3.7h-55.98c-2.55,0-4.82,1.62-5.62,4.03l-11.39,34.02c-.61,1.82,.75,3.7,2.68,3.7Z" fill="#131f2d"/>
      <path d="M1076.94,764.86c0-1.37-1.58-1.93-2.96-1.93s-3.64,1.51-3.62,3.43c.02,2.07,1.64,2.34,3.02,2.34s3.57-2.09,3.57-3.84Z" fill="#daebe8"/>
      <path d="M1014.76,781.81h79.63v5.1h-81.3c-.95,0-1.72-.77-1.72-1.72h0c0-1.87,1.52-3.38,3.38-3.38Z" fill="#131f2d"/>
      <path d="M1040.29,763.43l-.37-.1c.12-.44,2.9-10.86,4.77-14.23,1.9-3.42,4.22-4.09,4.32-4.12l.1,.36s-2.28,.67-4.09,3.94c-1.85,3.33-4.7,14.04-4.73,14.14Z" fill="#366f90"/>
      <path d="M1031.69,782v-.38c1.91,0,2.38-.79,2.38-.8l4.52-13.52,.36,.12-4.54,13.55c-.03,.07-.57,1.02-2.73,1.02Z" fill="#366f90"/>
    </g>
    <path d="M1085.34,881.03c-.01-.17-1.22-17.55-6.59-37.19-4.95-18.11-14.55-41.9-32.14-52.43l.24-.4c17.73,10.61,27.39,34.53,32.36,52.72,5.38,19.69,6.6,37.1,6.61,37.28l-.47,.03Z" fill="#020202"/>
    <path d="M1046.49,914.1c-.19-26.99-9.02-47.83-9.11-48.03l.43-.19c.09,.21,8.95,21.12,9.14,48.22h-.47Z" fill="#020202"/>
    <path d="M1028.16,666.75s-6.45-3.32-7.15-7.15c-.7-3.84-3.3-2.92-4.65-4.02-1.35-1.09,3.64-10.87,3.64-10.87l14.37-3.76-3.12,17.68-3.09,8.12Z" fill="#131f2d"/>
    <path d="M999.13,663.36c3-.04,5.76-1.66,7.2-4.29l4.52-8.25,1.31-2.39,7.71-14.08-2.54,15.1-1.52,9.07-.43,2.58c-.35,2.11,.95,4.13,3.01,4.7h.04c.95,1.94,2.15,5.81-2.63,6.84-5.62,1.22-14.03-3.91-16.71-9.29,.02,0,.03,0,.05,0Z" fill="#ff7955"/>
    <path d="M1010.85,650.57c0,.08,0,.17,0,.25-.1,4.94,4.93,7.72,4.93,7.72l.03-.02,1.52-9.07c-1.55-.74-3.77-1.56-5.17-1.03-.73,.28-1.24,.92-1.3,2.14Z" fill="#e1986c"/>
    <ellipse cx="1020.32" cy="636.85" rx="17.71" ry="14.35" transform="translate(290.14 1592.61) rotate(-84.59)" fill="#ff7955"/>
    <path d="M1026.93,648.99s-4.89-.35-9.61-2.53c0,0-.86,4.77,4.39,5.59,3.06,.48,5.21-3.07,5.21-3.07Z" fill="#fff"/>
    <path d="M1021.69,637.16c.1-.02,.19-.08,.24-.17,.08-.16,.02-.36-.14-.44-.09-.05-2.18-1.38-4.3,.54-.13,.12-.15,.32-.03,.46,.12,.14,.3,.12,.46,.03,1.59-.86,3.49-.49,3.57-.45,.07,.03,.14,.04,.2,.03Z" fill="#080435"/>
    <path d="M1018.1,640.25c-.1,.77,.28,1.46,.84,1.53,.56,.07,1.09-.5,1.19-1.27,.1-.77-.28-1.46-.84-1.53-.56-.07-1.09,.5-1.19,1.27Z" fill="#080435"/>
    <path d="M1027.29,641.74c-.15,.77,.18,1.47,.74,1.58,.56,.11,1.12-.43,1.27-1.19s-.18-1.47-.74-1.58c-.56-.11-1.12,.43-1.27,1.19Z" fill="#080435"/>
    <path d="M1014.46,624.91c10.68,3.65,17.51,14.17,16.79,25.44-.04,.65-.09,1.33-.16,2.01,0,0-7.54,.94-8.62,8.15-.34,2.26,5.86,6.75,6.33,6.59,3.59-1.21,13.36-8.73,12.9-25.55-.46-16.82-5.75-29.64-20.97-31.6-15.22-1.95-14.15,8.42-14.15,8.42,0,0,2.27,4.62,7.87,6.53Z" fill="#131f2d"/>
    <path d="M1016.59,625.14s-.27,.14-.72,.43c-1.73,1.1-6.07,4.31-7.28,9.6-1.53,6.66,4.56,11.47,2.29,16.52-2.28,5.05-6.43-1.25-10.33-.72-3.9,.53-6.53-1.52-6.06-9.17,.47-7.66,3.94-25.3,12.97-24.45l9.15,7.8Z" fill="#131f2d"/>
    <path d="M1006.05,638.19c1.47,1.7,3.72,2.07,5.02,.83,1.3-1.24,1.16-3.62-.31-5.32-1.47-1.7-3.72-2.07-5.02-.83-1.3,1.24-1.16,3.62,.31,5.32Z" fill="#ff7955"/>
    <path d="M1034.11,659.18s-.02,0-.03,0c-.09-.02-.16-.11-.14-.2,2.08-10.83-.85-21.8-4.67-27.87-5.91-9.38-13.22-8.93-13.29-8.93-.09,0-.18-.06-.19-.16,0-.1,.06-.18,.16-.19,.07,0,7.57-.49,13.61,9.09,3.86,6.12,6.82,17.19,4.72,28.11-.02,.08-.09,.14-.17,.14Z" fill="#fff"/>
    <path d="M1000.99,645.06c-.07,0-.14-.04-.16-.11-2.75-7.53,.19-19.85,3.42-23.31,3.29-3.52,7.79-1.05,7.84-1.02,.08,.05,.11,.15,.07,.24s-.15,.11-.24,.07c-.18-.1-4.31-2.36-7.41,.96-3.18,3.4-6.06,15.53-3.35,22.95,.03,.09-.01,.19-.1,.22-.02,0-.04,.01-.06,.01Z" fill="#fff"/>
    <path d="M1036.36,645.67h0c-.1,0-.17-.08-.17-.18,0-.21,.68-20.75-7.11-25-7.8-4.25-14.28-.39-14.34-.35-.08,.05-.19,.02-.24-.06-.05-.08-.02-.19,.06-.24,.07-.04,6.71-4,14.69,.34,7.98,4.35,7.32,24.46,7.29,25.31,0,.09-.08,.17-.17,.17Z" fill="#fff"/>
  </g>
  <g>
    <path d="M181.5,435.43c1.83,3.26,20.23,31.76,16.38,59.63l-20.02-7.24-9.15-37.57,12.79-14.82Z" fill="#ff7955"/>
    <path d="M101.55,423.75s12.3-22.06,42.25-15.96c29.94,6.1,46.29,48.96,38.16,133.85,0,0-47.57-18.91-109.43-3.67,0,0,10.18-82.21,29.02-114.22Z" fill="#00a3fe"/>
    <path d="M78.72,414.83l21.05,21.01s53.96,14.58,68.95,14.4c14.99-.17,20.89-11.13,20.89-11.13,0,0-12.65-20.03-38.24-29.09-2.4-.85-4.92-1.61-7.55-2.24-4.42-1.06-8.91-1.67-13.37-1.94-26.5-1.58-51.72,8.98-51.72,8.98Z" fill="#00a3fe"/>
    <path d="M78.72,414.83c-3.36,3.66,1.82,7.65,7.64,13.45,5.81,5.8,11.82,9.19,13.41,7.56,1.59-1.63-1.82-7.65-7.64-13.45-5.81-5.8-11.87-9.24-13.41-7.56Z" fill="#131f2d"/>
    <path d="M96.96,435.93s.31-4.2-4.96-9.55c-3.18-3.23-7.2-5.34-9.9-6.5-1.6-.69-3.46,.09-4.09,1.73l-1.69,4.35,7.86,5.06,12.78,4.92Z" fill="#ff7955"/>
    <path d="M134.16,513.76s-64.93-35.19-88.21,3.2c-17.23,28.41,8.67,54.88,104.73,52.19,0,0,9.49-4.45,7.18-27.51-.92-9.14-23.71-27.88-23.71-27.88Z" fill="#a0462d"/>
    <path d="M134.16,513.76s86.48-35.43,103.59-13.28c19.67,25.45,.81,68.67-90.35,53.22l-11.11-12.06-2.13-27.88Z" fill="#a0462d"/>
    <path d="M150.79,569.29l-.21-.3c10.09-7.2,7.37-25.68,7.13-27.23l-65.55-23.86,.12-.34,65.75,23.93,.02,.1c.04,.2,3.41,20.08-7.25,27.69Z" fill="#020202"/>
    <path d="M158.41,547.98s15.94,.65,23.42,4.32c7.49,3.67,3.49,12.63-11.71,12.39-15.2-.24-14.05-2.5-14.05-2.5,0,0,2.89-7.87,2.34-14.21Z" fill="#131f2d"/>
    <path d="M138.01,515.45c5.28,0,9.61-1.33,13.13-3.99,6.64-5.01,7.87-12.99,6.91-18.31l-6.35-3.69c-.32-1.74-12.57,4.73-12.55,4.73-.06,.02-5.85,1.7-25.94-8.57-13.99-7.15-21.04-17.29-21.55-31.01-.39-10.34,4.22-16.15,5.31-18.67,.14-.34-6.76-7.26-6.56-7.96l-5.18-2.63c.17-.59-4.98-2.62-4.9-2.79l-3.99,3.4c-1.97,4.56-6.16,15.03-5.62,29.45,.56,14.98,6.75,35.66,33.03,49.1,14.33,7.32,25.58,10.95,34.28,10.95Z" fill="#ff7955"/>
    <g>
      <path d="M142.28,516.29h56.04c1.17,0,2.21-.75,2.59-1.85l11.65-34.78c.59-1.75-.73-3.56-2.59-3.56h-53.89c-2.46,0-4.64,1.56-5.41,3.88l-10.97,32.75c-.59,1.75,.73,3.56,2.59,3.56Z" fill="#131f2d"/>
      <path d="M145.79,516.29h56.04c1.17,0,2.21-.75,2.59-1.85l11.65-34.78c.59-1.75-.73-3.56-2.59-3.56h-53.89c-2.46,0-4.64,1.56-5.41,3.88l-10.97,32.75c-.59,1.75,.73,3.56,2.58,3.56Z" fill="#131f2d"/>
      <path d="M185.06,495.06c0-1.32-1.52-1.86-2.85-1.86s-3.5,1.45-3.49,3.3c.01,2,1.58,2.26,2.9,2.26s3.43-2.02,3.43-3.7Z" fill="#daebe8"/>
      <path d="M125.19,511.37h76.67v4.91H123.59c-.91,0-1.66-.74-1.66-1.66h0c0-1.8,1.46-3.26,3.26-3.26Z" fill="#131f2d"/>
      <path d="M149.78,493.68l-.35-.09c.11-.43,2.79-10.46,4.59-13.7,1.83-3.29,4.07-3.94,4.16-3.96l.1,.35s-2.19,.64-3.94,3.79c-1.78,3.2-4.53,13.51-4.56,13.62Z" fill="#131f2d"/>
      <path d="M141.5,511.56v-.36c1.84,0,2.29-.76,2.3-.77l4.35-13.01,.35,.12-4.37,13.04c-.03,.07-.55,.99-2.63,.99Z" fill="#131f2d"/>
    </g>
    <path d="M87.63,485.3c-.2,0-.41-.03-.62-.09-1.21-.32-2.53-1.53-3.46-3.15h0c-1.42-2.48-1.46-5.05-.09-5.85,.43-.25,.96-.3,1.53-.15,1.21,.32,2.53,1.53,3.46,3.15,1.42,2.48,1.46,5.05,.09,5.85-.27,.16-.57,.23-.9,.23Zm-3.45-3.6c.82,1.44,2.01,2.54,3.02,2.81,.39,.1,.71,.08,.97-.07,.99-.58,.83-2.8-.35-4.86-.82-1.44-2.01-2.54-3.02-2.81-.38-.1-.71-.08-.97,.07-.99,.58-.83,2.8,.35,4.86h0Z" fill="#ec865c"/>
    <path d="M129.97,405.8c3.68-.11,6.47-.49,8.59-2.98l6.55-7.71,1.91-2.24,11.22-13.2-5.89,15.43-3.54,9.26-1.12,2.93c-.76,1.99,.24,2.92,.95,5.25,.29,.94,2.22,6.75-2.82,6.78-6.27,.05-14.21-7.25-15.95-13.55,.03,0,.06,.02,.1,.02Z" fill="#ff7955"/>
    <path d="M143.29,390.16s-12.35-11.87-5.23-21.89,8.91,16.08,8.91,16.08l-1.99,6.03-1.69-.22Z" fill="#131f2d"/>
    <path d="M145.18,394.84c-.02,.09-.04,.18-.06,.27-1.15,5.21,3.65,9.27,3.65,9.27l.04-.02,3.54-9.26c-1.5-1.13-3.72-2.49-5.33-2.23-.84,.13-1.52,.7-1.85,1.98Z" fill="#131f2d"/>
    <path d="M171.33,388.39c2.79-9.28-1.13-18.69-8.75-21.02-7.62-2.33-16.06,3.3-18.84,12.57-2.79,9.28,1.13,18.69,8.75,21.02,7.62,2.33,16.06-3.3,18.84-12.57Z" fill="#ff7955"/>
    <path d="M146.34,378.61s3.93,2.86,7.23,.44c3.3-2.42,5.63-4.71,13.01-.99,7.38,3.72,15.46,2.05,16.96-2.14,1.49-4.18-2.02-7.39-6.66-7.18-4.64,.21,.98-2.33-2.24-6.73-3.23-4.4-11.41,.13-15.46-2.05-4.06-2.18-18.51-4.07-21.1,8.31l8.28,10.34Z" fill="#131f2d"/>
    <path d="M143.26,381.09c.95,1.46,2.77,1.96,4.06,1.1,1.3-.86,1.58-2.74,.63-4.2-.95-1.46-2.77-1.96-4.06-1.1-1.3,.86-1.58,2.74-.63,4.2Z" fill="#ff7955"/>
    <path d="M175.39,374.47c-3.1,0-7.31-3.78-7.5-3.96l.36-.4s4.96,4.46,7.8,3.74c1.09-.28,1.71-.79,1.61-1.35-.09-.53-.87-1.03-1.97-.92-2.4,.25-3.71-.57-3.76-.6l.29-.46s1.21,.75,3.42,.52c1.47-.15,2.42,.59,2.55,1.36,.12,.67-.35,1.54-2.01,1.97-.25,.06-.52,.09-.79,.09Z" fill="#fff"/>
    <path d="M162.63,364.1c-1.02,0-2.08-.15-3.09-.55-1.28-.5-2.4-1.09-3.48-1.66-2.09-1.11-3.9-2.06-5.87-1.68l-.1-.53c2.15-.42,4.04,.58,6.23,1.73,1.07,.56,2.17,1.15,3.43,1.64,3.75,1.47,8.15-.65,8.42-.89l.4,.37c-.23,.27-2.93,1.57-5.92,1.57Z" fill="#fff"/>
    <path d="M141.81,367.62c-.08,0-.15-.01-.22-.04-.18-.07-.46-.28-.28-.94l.04-.09c.3-.43,1.87-2.56,2.95-1.88,.14,.09,.43,.35,.14,.93-.36,.72-1.8,2.01-2.63,2.01Zm0-.79c-.05,.21-.02,.27-.02,.27,.15,.05,.93-.32,1.67-1.09,.52-.54,.57-.82,.55-.86-.48-.3-1.58,.82-2.2,1.69Z" fill="#fff"/>
    <path d="M160.3,384.63c.09-.01,.17-.06,.22-.15,.08-.14,.03-.32-.11-.4-.08-.05-1.91-1.31-3.86,.36-.12,.11-.14,.29-.04,.42,.1,.13,.27,.12,.41,.04,1.45-.73,3.14-.34,3.21-.3,.06,.03,.12,.04,.18,.03Z" fill="#080435"/>
    <path d="M157.6,387.55c-.11,.7,.21,1.32,.71,1.41,.5,.08,.99-.42,1.1-1.11,.11-.7-.21-1.32-.71-1.41s-.99,.42-1.1,1.11Z" fill="#080435"/>
    <path d="M170.51,388.33c.07,.02,.14,0,.2-.07,.1-.11,.13-.29,.06-.41-.04-.07-.89-1.85-2.85-.93-.12,.06-.2,.22-.17,.37,.03,.15,.15,.2,.28,.17,1.28-.21,2.34,.71,2.37,.77,.03,.05,.07,.08,.12,.09Z" fill="#080435"/>
    <path d="M166.84,389.98c-.36,.6-.31,1.3,.12,1.57,.43,.27,1.08,0,1.44-.6,.36-.6,.31-1.3-.12-1.57-.43-.27-1.08,0-1.44,.6Z" fill="#080435"/>
    <g>
      <path d="M158.48,397.37c-1.76,0-4.41-.52-5.99-3.3-.06-.1-.02-.22,.08-.28,.1-.06,.22-.02,.28,.08,2.34,4.14,7.1,2.98,7.3,2.92,.11-.03,.22,.04,.25,.15,.03,.11-.04,.22-.15,.25-.02,0-.74,.18-1.77,.18Z" fill="#020202"/>
      <path d="M152.08,394.79s-.04,0-.06-.01c-.11-.04-.17-.15-.13-.26,.17-.51,.62-.98,1.35-1.4,.1-.06,.24-.04,.3,.06,.06,.09,.06,.2-.04,.26l-.06,.04c-.79,.45-1.07,.89-1.16,1.17-.03,.09-.11,.14-.19,.14Z" fill="#020202"/>
    </g>
    <rect x="176.02" y="438.18" width=".9" height="10.59" transform="translate(-129.74 77.36) rotate(-18.21)" fill="#131f2d"/>
    <path d="M168.49,399.92c-1.06,0-2.01-.39-2.78-1.16-2.46-2.44-2.35-8.1,.26-12.62,1.61-2.78,3.86-4.61,6.02-4.9,1.29-.17,2.46,.21,3.37,1.12,2.46,2.44,2.35,8.1-.26,12.62-1.61,2.78-3.86,4.61-6.02,4.9-.2,.03-.4,.04-.59,.04Zm4.09-18.1c-.17,0-.33,.01-.51,.03-1.98,.26-4.07,1.99-5.58,4.6-2.48,4.29-2.64,9.62-.36,11.88,.77,.77,1.76,1.09,2.86,.95,1.98-.27,4.07-1.99,5.58-4.6,2.48-4.29,2.64-9.62,.36-11.88-.65-.65-1.46-.98-2.35-.98Z" fill="#fff"/>
    <path d="M151.29,379.51c-2.11,4.49-1.53,9.95,1.3,12.2,2.83,2.25,6.84,.43,8.95-4.06,2.11-4.49,1.53-9.95-1.3-12.2-2.83-2.25-6.84-.43-8.95,4.06Z" fill="#fff" opacity=".3"/>
    <path d="M165.76,386.51c-2.12,4.51-1.83,9.99,.64,12.23,2.47,2.24,6.2,.4,8.31-4.11,2.12-4.51,1.83-9.99-.64-12.23-2.47-2.24-6.2-.4-8.31,4.11Z" fill="#fff" opacity=".3"/>
    <path d="M155.76,392.92c-1.11,0-2.15-.37-3.08-1.09-3.13-2.44-3.82-8.33-1.54-13.12,1.33-2.8,3.39-4.71,5.66-5.24,1.56-.37,3.05-.04,4.31,.94,3.13,2.44,3.82,8.33,1.54,13.12-1.33,2.8-3.39,4.71-5.66,5.24-.42,.1-.83,.15-1.23,.15Zm2.28-18.99c-.36,0-.72,.04-1.08,.13-2.06,.49-4.02,2.32-5.25,4.91-2.16,4.55-1.55,10.1,1.36,12.38,1.11,.87,2.42,1.15,3.79,.83,2.06-.49,4.02-2.32,5.25-4.91,2.16-4.55,1.55-10.1-1.36-12.38-.81-.63-1.73-.96-2.71-.96Z" fill="#fff"/>
    <path d="M166.12,388.43c-.17,0-.34-.08-.45-.22h0c-.05-.06-1.23-1.53-3.8-1.6-.31,0-.56-.27-.56-.58,0-.31,.26-.57,.58-.55,3.14,.08,4.62,1.96,4.68,2.04,.19,.25,.14,.61-.11,.8-.1,.08-.22,.12-.35,.12Z" fill="#fff"/>
  </g>
  <g>
    <path d="M692.42,440.79s-2.41,15.61-8.83,23.56c-4.23,5.24-15.89,15.63-7.6,19.09,6.63,2.76,19.38-9.54,23.53-12.6,4.14-3.06,10.39-8.86,9-13.79-2.87-10.23-1.92-23.09-1.92-23.09l-14.18,6.83Z" fill="#131f2d"/>
    <path d="M724.46,428.69s3.21,15.47-.02,25.14c-2.13,6.38-9.43,20.14-.44,20.52,7.18,.31,14.83-15.63,17.64-19.93,2.81-4.3,6.64-11.89,3.61-16.04-6.27-8.6-9.89-20.98-9.89-20.98l-10.9,11.29Z" fill="#131f2d"/>
    <path d="M719.96,439.61c-86-56.93-81.76-106.81-69.84-126.31,13.84-22.65,35.76-40.56,69.35-48.55,8.95-2.13,17.48-3.36,24.6-4.07,10.31-1.03,19.2,7.15,18.93,17.43l-.77,29.05h.07c-14.35-.3-57.88,4.05-69.29,27.07-2.37,4.79,55.52,72.26,53.36,84.37-2.44,13.7-17.99,26.58-26.4,21.02Z" fill="#364154"/>
    <path d="M686.62,448.14c-9.89,.05-17.78-8.2-17.2-17.99,1.3-21.78,5.37-58.86,18.16-86.87,7.25-15.89,18.77-30.33,34.26-42.93,11.67-9.5,25.64-17.99,41.53-25.24,26.41-12.05,45.44-10.37,45.44-10.37l12.43,7.46c-.19,.04,17.99,41.76-15.56,60.34-34.36,19.02-59.59,10.46-73.52,37.51-9.94,19.31-13.74,44.91-15,62.8-.6,8.56-7.77,15.19-16.41,15.24l-14.12,.07Z" fill="#364154"/>
    <path d="M672.69,400.1l-.53-.04c.01-.19,1.38-19.69,7.46-41.74,5.61-20.37,16.5-47.15,36.51-59.03l.27,.45c-19.86,11.79-30.68,38.43-36.26,58.71-6.06,21.99-7.43,41.45-7.44,41.64Z" fill="#020202"/>
    <path d="M716.52,437.13h-.53c.22-30.34,10.22-53.75,10.32-53.99l.48,.21c-.1,.23-10.06,23.56-10.27,53.78Z" fill="#020202"/>
    <path d="M716.27,176.08c-2.74,3.54-29.48,33.99-29.82,67.61l24.94-5.04,17.41-42.8-12.52-19.77Z" fill="#ff7955"/>
    <path d="M812.83,176.3s-10.67-28.24-47.14-26.28c-36.47,1.96-62.08,16.34-67.38,118.12,0,0,50.33-2.86,107.87,31.01,9.69,5.7,24.81,4.55,25.43-6.67,1.24-22.36-3.36-65.05-18.78-116.17Z" fill="#a0462d"/>
    <path d="M844.86,180.77l-32.04,10.15s-66.34,7.77-84.03,4.93c-17.69-2.84-22.74-16.82-22.74-16.82,0,0,18.47-21.46,50.31-27.68,2.99-.59,6.1-1.04,9.32-1.32,5.41-.48,10.61-.97,15.92-.42,51.88,5.44,63.26,31.16,63.26,31.16Z" fill="#a0462d"/>
    <path d="M844.86,180.77c1.72,3.82-5.79,7.41-14.99,10.82s-17.41,4.1-18.33,1.54c-.92-2.56,5.79-7.41,14.99-10.82,9.2-3.41,17.22-4.02,18.33-1.54Z" fill="#131f2d"/>
    <path d="M753.64,278.3c-6.24-.93-11.13-3.26-14.82-7.02-6.97-7.09-7.03-16.74-4.95-22.85l8.16-3.25c.68-2.01,14.03,7.8,14.01,7.79,.06,.03,6.62,3.03,32.17-5.58,17.79-6,27.9-16.75,30.92-32.88,2.27-12.16-1.68-18.4-2.52-21.57-.11-.42,2.19-5.72,11.69-8.86,10.25-3.39,13.98-.75,13.98-.75,1.53,5.74,4.65,18.85,1.48,35.8-3.29,17.61-14.24,40.98-47.66,52.24-18.23,6.14-32.16,8.45-42.44,6.93Z" fill="#ff7955"/>
    <g>
      <path d="M748.04,281.16l-66.94-1.83c-1.4-.04-2.62-.96-3.03-2.3l-12.78-41.93c-.64-2.11,.98-4.23,3.2-4.17l64.38,1.76c2.93,.08,5.49,2.02,6.34,4.81l12.03,39.49c.64,2.11-.98,4.23-3.2,4.17Z" fill="#131f2d"/>
      <path d="M743.84,281.05l-66.94-1.83c-1.4-.04-2.62-.96-3.03-2.3l-12.78-41.93c-.64-2.11,.98-4.23,3.2-4.17l64.38,1.76c2.93,.08,5.49,2.02,6.34,4.81l12.03,39.49c.64,2.11-.98,4.23-3.2,4.17Z" fill="#131f2d"/>
      <path d="M697.62,254.4c.04-1.58,1.88-2.17,3.47-2.13,1.59,.04,4.13,1.85,4.06,4.06-.08,2.38-1.96,2.64-3.54,2.6-1.59-.04-4.04-2.52-3.98-4.53Z" fill="#daebe8"/>
      <path d="M768.63,275.85l-91.61-2.5-.16,5.87,93.51,2.56c1.09,.03,1.99-.83,2.02-1.92v-.03c.06-2.14-1.63-3.92-3.77-3.98Z" fill="#131f2d"/>
      <path d="M739.82,253.91c-.03-.12-2.98-12.53-5-16.42-1.99-3.82-4.56-4.65-4.58-4.65l.13-.42c.11,.03,2.76,.88,4.84,4.87,2.05,3.93,4.92,16.01,5.04,16.52l-.42,.1Z" fill="#364154"/>
      <path d="M749.13,275.54c-2.48-.07-3.07-1.18-3.09-1.23l-4.81-15.76,.42-.13,4.79,15.72h0s.54,.9,2.7,.96v.44Z" fill="#364154"/>
    </g>
    <g opacity=".3">
      <path d="M818.88,251.53c-.55,0-1.04-.16-1.42-.46-1.48-1.19-.98-4.22,1.13-6.9,1.38-1.75,3.16-2.95,4.64-3.12,.7-.08,1.32,.07,1.78,.44,1.48,1.19,.98,4.22-1.13,6.91h0c-1.38,1.75-3.16,2.95-4.64,3.12-.12,.01-.24,.02-.36,.02Zm4.71-9.64c-.08,0-.17,0-.26,.02-1.24,.14-2.83,1.24-4.06,2.79-1.76,2.23-2.34,4.83-1.27,5.69,.28,.22,.66,.31,1.13,.26,1.24-.14,2.83-1.24,4.06-2.79h0c1.75-2.23,2.34-4.83,1.27-5.69-.23-.18-.52-.27-.87-.27Z" fill="#ec865c"/>
    </g>
    <path d="M772.26,145.11l-5.49-9.69-1.6-2.82-9.4-16.58,3.14,17.85,1.89,10.71,.6,3.39c.41,2.3-.88,3.09-2.14,5.44-.51,.95-3.83,6.78,1.63,7.9,6.8,1.38,17.49-5.3,20.72-11.7-.04,0-7.57-1.37-9.35-4.5Z" fill="#ff7955"/>
    <g>
      <path d="M740.13,112.45s-.18,4.55,2.12,9.7c2.3,5.15,4.89-9.32,4.89-9.32l-7.01-.39Z" fill="#131f2d"/>
      <path d="M741.94,123.85c-.91-10.74,5.57-20.05,14.47-20.81,8.9-.76,16.86,7.33,17.77,18.07,.91,10.74-5.57,20.05-14.47,20.81-8.9,.76-16.86-7.33-17.77-18.07Z" fill="#ff7955"/>
      <path d="M773.39,115.57l-7.82,.88c-1.72,.19-3.46-.37-4.68-1.6-2.1-2.11-4.27-2.96-11.34-1.13-8.96,2.32-16.11-1.77-18.12-6.28-2.05-4.61,1.86-8.89,6.9-7.58s1.86-3.91,6.09-5.46c7.91-2.9,10.81,3.05,17.45,1.39,8.7-2.18,25.84,1.04,21.77,18.08l-10.24,1.71Z" fill="#131f2d"/>
      <path d="M757.06,121.86c-.09-.03-.17-.11-.2-.21-.05-.17,.04-.36,.22-.41,.1-.03,2.4-.98,4.15,1.29,.11,.14,.09,.35-.05,.46-.14,.11-.32,.06-.46-.05-1.42-1.13-3.36-1.1-3.45-1.08-.07,.02-.14,.02-.21,0Z" fill="#080435"/>
      <path d="M759.35,125.67c-.04,.78-.53,1.39-1.1,1.36-.57-.03-.99-.69-.95-1.47,.04-.78,.53-1.39,1.1-1.36,.57,.03,.99,.69,.95,1.47Z" fill="#080435"/>
      <path d="M745,123.5c-.08,0-.15-.04-.21-.12-.09-.14-.08-.35,.03-.46,.06-.07,1.41-1.8,3.35-.34,.12,.09,.17,.29,.1,.45s-.21,.18-.34,.13c-1.35-.52-2.73,.23-2.78,.28-.04,.05-.1,.07-.15,.07Z" fill="#080435"/>
      <path d="M748.64,126.15c.26,.74,.04,1.49-.5,1.68-.54,.19-1.18-.26-1.44-.99-.26-.74-.04-1.49,.5-1.68,.54-.19,1.18,.26,1.44,.99Z" fill="#080435"/>
      <path d="M783.63,113.86s-2.79,12.56-10.1,15.03c0,0,4.16-10.01-9.77-12.52,0,0,11.32-4.41,19.87-2.52Z" fill="#131f2d"/>
      <path d="M774.44,122.46c-1.38,1.37-3.49,1.48-4.71,.25-1.22-1.23-1.1-3.34,.28-4.71s3.49-1.48,4.71-.25,1.1,3.34-.28,4.71Z" fill="#ff7955"/>
      <path d="M763.76,116.37s3.12,9.34,1.56,11.58c-1.55,2.23-14.24,5.82-20.75,4.82h0c1.24,6.17,6.76,10.64,13.04,10.34,2.08-.1,4.15-.55,6.13-1.36h0c4.04-1.65,7.74-4.28,8.62-8.56,.27-1.3-2.86-8.26-2.86-8.26,0,0-1.51-4.16,.49-6.93,0,0-3.44-1.96-6.25-1.62Z" fill="#131f2d"/>
      <path d="M748.5,135.53s5.22,.26,10.49-1.44c0,0,.3,5.16-5.36,5.36-3.29,.12-5.12-3.91-5.12-3.91Z" fill="#fff"/>
      <path d="M738.99,98.91l-.08-.43c2.09-.39,1.92-2.1,1.91-2.17l.44-.05s.24,2.19-2.27,2.66Z" fill="#131f2d"/>
      <path d="M746.43,111.74c-.43-.03-10.49-.77-12.02-5.77-.44-1.45-.4-2.49,.13-3.19,.84-1.12,2.72-1.09,4.39-1.07,.25,0,.48,0,.72,0v.22c-.23,0-.47,0-.72,0-1.61-.02-3.43-.05-4.21,.98-.48,.64-.51,1.62-.09,3,1.48,4.86,11.72,5.61,11.82,5.62v.22Z" fill="#fff"/>
      <path d="M759.16,98.01c-5.15,0-8.17-2.28-8.21-2.32l.14-.17c.06,.04,5.73,4.33,14.84,1.01l.08,.21c-2.56,.94-4.86,1.27-6.84,1.27Z" fill="#fff"/>
    </g>
  </g>
  <g>
    <path d="M1224.25,375.04l-1.1-1.83c20.56-12.38,53.64-39.49,44.16-82.01l2.09-.47c4.34,19.47,.41,37.85-11.7,54.62-10.08,13.97-23.75,23.85-33.44,29.69Z" fill="#131f2d"/>
    <polygon points="1232.7 378.09 1225.96 372.75 1225.13 364.19 1212.43 380.12 1232.7 378.09" fill="#131f2d"/>
    <polygon points="1277.43 294.56 1268.88 293.55 1262.23 298.99 1264.57 278.76 1277.43 294.56" fill="#131f2d"/>
  </g>
  <g>
    <path d="M683.17,880.42c-13.54,0-26.51-4.28-38.71-12.8-14.12-9.86-24.22-23.38-30.2-32.97l1.81-1.13c12.7,20.37,40.32,53.02,82.69,42.87l.5,2.08c-5.44,1.3-10.81,1.95-16.09,1.95Z" fill="#131f2d"/>
    <polygon points="611.34 843.14 616.57 836.32 625.12 835.35 608.99 822.91 611.34 843.14" fill="#131f2d"/>
    <polygon points="695.55 886.56 696.43 878 690.89 871.43 711.15 873.46 695.55 886.56" fill="#131f2d"/>
  </g>
  <g>
    <path d="M236.29,860.44c-7.39,0-14.95-1.27-22.66-3.82-16.36-5.4-29.9-15.45-38.39-22.93l1.41-1.6c18,15.87,53.83,39.24,91.51,17.37l1.07,1.85c-10.48,6.08-21.51,9.13-32.95,9.13Z" fill="#131f2d"/>
    <polygon points="174.88 842.67 177.94 834.63 185.85 831.25 166.84 823.96 174.88 842.67" fill="#131f2d"/>
    <polygon points="268.01 860.13 266.4 851.68 259.2 846.97 279.2 843.11 268.01 860.13" fill="#131f2d"/>
  </g>
  <g>
    <path d="M558.45,39.18v22.23c0,.8-.65,1.45-1.45,1.45h-2.76c-.8,0-1.45-.65-1.45-1.45v-17.57c0-.8-.65-1.45-1.45-1.45h-6.04c-.8,0-1.45,.65-1.45,1.45v17.57c0,.8-.65,1.45-1.45,1.45h-2.76c-.8,0-1.45-.65-1.45-1.45v-22.23c0-.8,.65-1.45,1.45-1.45h17.38c.8,0,1.45,.65,1.45,1.45Z" fill="#eaeaea"/>
    <path d="M563.18,50.74c0-1.72-.04-3.25-.09-4.61-.03-.82,.63-1.51,1.45-1.51h2.1c.75,0,1.37,.56,1.45,1.31l.13,1.23h.07c1.34-1.9,3.43-2.95,6.08-2.95,3.99,0,7.57,3.47,7.57,9.29,0,6.64-4.21,9.77-8.28,9.77-2.2,0-3.92-.89-4.74-2.09h-.07v7.61c0,.8-.65,1.45-1.45,1.45h-2.76c-.8,0-1.45-.65-1.45-1.45v-18.05Zm5.67,4.29c0,.45,.04,.82,.11,1.19,.37,1.53,1.68,2.69,3.32,2.69,2.46,0,3.92-2.05,3.92-5.15,0-2.91-1.31-5.11-3.84-5.11-1.6,0-3.02,1.19-3.39,2.87-.07,.3-.11,.67-.11,1.01v2.5Z" fill="#eaeaea"/>
    <path d="M589.36,44.63c.8,0,1.45,.65,1.45,1.45v4.14c0,2.91-.15,4.96-.3,7.42l.15,.04c.86-2.09,1.34-3.51,2.09-5.22l3.16-6.98c.24-.52,.75-.86,1.33-.86h4.54c.8,0,1.45,.65,1.45,1.45v15.33c0,.8-.65,1.45-1.45,1.45h-2.46c-.8,0-1.45-.65-1.45-1.45v-4.1c0-2.83,.15-4.03,.34-7.87h-.15c-.71,1.98-1.16,3.17-1.9,4.89-1.04,2.28-2.26,5.08-3.42,7.68-.23,.52-.75,.86-1.33,.86h-4.5c-.8,0-1.45-.65-1.45-1.45v-15.33c0-.8,.65-1.45,1.45-1.45h2.46Z" fill="#eaeaea"/>
    <path d="M607.71,46.11c0-.75,.57-1.38,1.31-1.45,1.6-.15,3.9-.3,6.04-.3,3.1,0,9.03,.34,9.03,4.66,0,2.35-1.9,3.58-3.73,3.92v.11c2.72,.45,4.51,1.94,4.51,4.44,0,5.18-7.05,5.63-10.78,5.63-1.8,0-3.68-.09-5.03-.2-.76-.06-1.34-.69-1.34-1.45v-15.36Zm5.56,12.12c0,.8,.64,1.45,1.44,1.45,.14,0,.29,0,.46,0,1.94,0,3.88-.56,3.88-2.35,0-1.6-1.49-2.31-4.18-2.31h-.15c-.8,0-1.45,.65-1.45,1.45v1.75Zm.04-7.94c0,.8,.65,1.45,1.45,1.45h0c2.27,0,3.73-.6,3.73-1.98,0-1.19-1.01-1.9-3.28-1.9-.19,0-.36,0-.53,.01-.77,.04-1.37,.68-1.37,1.45v.96Z" fill="#eaeaea"/>
    <path d="M635.25,55.55c-1.51,0-2.03,2.02-.7,2.74,.91,.49,2.07,.73,3.3,.73,1.35,0,2.51-.13,3.61-.38,.79-.18,1.57,.35,1.73,1.14l.21,1.06c.14,.73-.28,1.46-.99,1.67-1.6,.48-3.43,.72-5.37,.72-6.19,0-9.73-3.58-9.73-9.29,0-4.62,2.87-9.73,9.21-9.73,5.89,0,8.13,4.59,8.13,9.1,0,.31-.01,.61-.03,.89-.05,.76-.69,1.35-1.45,1.35h-7.91Zm2.35-3.88c1.04,0,1.79-1.09,1.34-2.03-.44-.91-1.27-1.67-2.77-1.67-1.27,0-2.13,.62-2.69,1.42-.66,.96,.05,2.27,1.21,2.27h2.91Z" fill="#eaeaea"/>
    <path d="M662.13,46.08v1.45c0,.8-.65,1.45-1.45,1.45h-2.39c-.8,0-1.45,.65-1.45,1.45v10.96c0,.8-.65,1.45-1.45,1.45h-2.76c-.8,0-1.45-.65-1.45-1.45v-10.96c0-.8-.65-1.45-1.45-1.45h-2.39c-.8,0-1.45-.65-1.45-1.45v-1.45c0-.8,.65-1.45,1.45-1.45h13.35c.8,0,1.45,.65,1.45,1.45Z" fill="#eaeaea"/>
  </g>
  <g>
    <path d="M597.49,1024.14c-21.3,0-46.35-1.15-61.72-2.42-13.97-1.15-27.64-.03-38.62,.86-3.77,.31-7.33,.6-10.48,.76h0c-6.62,.35-13.14-2.03-17.88-6.53-4.36-4.14-6.87-9.77-6.87-15.45v-73.25c0-5.45,2.25-10.68,6.34-14.73,4.65-4.61,11.26-7.25,18.16-7.25,.07,0,.14,0,.22,0,5.92,.05,13.87,.27,22.28,.51,17.9,.51,38.19,1.09,50.38,.35,4.16-.25,7.86-2.04,10.23-4.9l22.21-26.85v21.55c0,1.98,.83,3.89,2.34,5.39,1.86,1.84,4.55,2.9,7.4,2.9h.08c8.2-.06,14.75,.27,21.24,1.06,14.73,1.79,24.62,10.62,24.62,21.97v73.25c0,11.57-10.37,20.81-24.65,21.98-6.85,.56-15.68,.79-25.27,.79Zm-74.35-4.34c4.17,0,8.44,.14,12.74,.5,22.25,1.84,64.78,3.42,86.76,1.63,13.52-1.11,23.34-9.75,23.34-20.56v-73.25c0-12.24-11.74-19.14-23.37-20.56-6.42-.78-12.92-1.1-21.05-1.05-.03,0-.06,0-.09,0-3.22,0-6.28-1.2-8.4-3.31-1.78-1.77-2.76-4.04-2.76-6.4v-17.59l-19.69,23.8c-2.62,3.17-6.69,5.14-11.17,5.41-12.32,.75-32.65,.17-50.58-.35-8.41-.24-16.35-.47-22.25-.51-.07,0-.14,0-.2,0-6.53,0-12.78,2.48-17.16,6.83-3.81,3.78-5.91,8.66-5.91,13.72v73.25c0,5.29,2.34,10.54,6.42,14.42,4.45,4.23,10.58,6.46,16.82,6.14l.04,.71-.04-.71c3.13-.16,6.68-.45,10.44-.76,7.66-.63,16.63-1.36,26.11-1.36Z" fill="#9ab29b"/>
    <g>
      <path d="M487.6,954.26c-.2-.63,.1-1.3,.69-1.58,1.66-.79,3.9-1.45,6.75-1.45,5.44,0,8.66,2.74,8.66,6.4,0,3.14-2.11,5.18-5,5.88v.07c3.11,.44,5.81,2.59,5.81,5.92,0,5.59-5.59,7.51-10.25,7.51-2.2,0-4.55-.4-6.48-1.24-.58-.26-.88-.91-.71-1.53l.51-1.88c.2-.73,.98-1.15,1.7-.88,1.29,.48,3.08,.95,4.73,.95,2.85,0,4.59-1.22,4.59-3.29,0-2.74-2.89-3.29-5.25-3.29h-1.07c-.72,0-1.3-.58-1.3-1.3v-1.58c0-.72,.58-1.3,1.3-1.3h1.07c2.55,0,4.48-1.15,4.48-3.14,0-1.63-1.37-2.74-3.77-2.74-1.41,0-2.93,.42-4.2,.91-.7,.28-1.49-.09-1.72-.81l-.52-1.62Z" fill="#9ab29b"/>
      <path d="M528.09,952.97v17.97c0,.69,.54,1.26,1.22,1.3h0c.7,.04,1.24,.63,1.22,1.33l-.2,8.06c-.02,.71-.59,1.27-1.3,1.27h-1.74c-.7,0-1.27-.55-1.3-1.24l-.18-3.81c-.03-.69-.61-1.24-1.3-1.24h-12.13c-.7,0-1.27,.55-1.3,1.24l-.18,3.81c-.03,.69-.61,1.24-1.3,1.24h-1.77c-.71,0-1.29-.57-1.3-1.27l-.17-8.07c-.01-.69,.52-1.28,1.21-1.33h.17c.44-.04,.84-.29,1.05-.68,.84-1.56,1.53-3.2,2.02-4.93,.67-2.52,.96-5.25,.96-8.29v-5.36c0-.72,.58-1.3,1.3-1.3h13.71c.72,0,1.3,.58,1.3,1.3Zm-11.1,6.62c0,2.89-.37,5.7-1.11,8.21-.24,.83-.54,1.65-.86,2.43-.36,.85,.28,1.79,1.21,1.79h4.94c.72,0,1.3-.58,1.3-1.3v-13.16c0-.72-.58-1.3-1.3-1.3h-2.87c-.72,0-1.3,.58-1.3,1.3v2.03Z" fill="#9ab29b"/>
      <path d="M533.75,953.12c0-.65,.48-1.21,1.12-1.29,1.63-.21,3.74-.35,6.5-.35,3.48,0,5.96,.67,7.62,2,1.63,1.26,2.66,3.33,2.66,5.77s-.78,4.55-2.29,5.92c-1.92,1.78-4.77,2.63-8.1,2.63-.2,0-.39,0-.58,0-.74-.02-1.35,.56-1.35,1.3v6.21c0,.72-.58,1.3-1.3,1.3h-2.98c-.72,0-1.3-.58-1.3-1.3v-22.18Zm5.59,9.04c0,.7,.56,1.28,1.26,1.3,.19,0,.4,0,.63,0,3,0,4.85-1.52,4.85-4.03,0-2.29-1.59-3.66-4.44-3.66-.4,0-.76,0-1.07,.03-.69,.04-1.22,.61-1.22,1.3v5.06Z" fill="#9ab29b"/>
      <path d="M558.54,971.16l-1.25,4.49c-.16,.56-.67,.95-1.25,.95h-3.06c-.87,0-1.5-.84-1.25-1.68l6.79-22.34c.17-.55,.67-.92,1.25-.92h5.48c.57,0,1.07,.37,1.24,.91l6.96,22.34c.26,.84-.37,1.69-1.24,1.69h-3.37c-.57,0-1.08-.38-1.25-.93l-1.37-4.55c-.17-.55-.67-.93-1.25-.93h-5.18c-.59,0-1.1,.39-1.25,.95Zm4.85-5.17c.87,0,1.49-.84,1.25-1.67l-1.06-3.62c-.44-1.48-.89-3.33-1.26-4.81h-.07c-.37,1.48-.74,3.37-1.15,4.81l-1.02,3.64c-.23,.83,.39,1.65,1.25,1.65h2.06Z" fill="#9ab29b"/>
      <path d="M577.27,953.13c0-.66,.49-1.21,1.14-1.29,1.6-.19,3.91-.35,6.15-.35,3.44,0,5.55,.33,7.4,1.41,1.74,.92,2.96,2.63,2.96,4.92s-1.3,4.22-4.11,5.29v.07c2.85,.74,4.96,2.92,4.96,6.11,0,2.29-1.04,4.07-2.59,5.33-1.81,1.44-4.85,2.26-9.81,2.26-2.04,0-3.71-.1-4.94-.23-.66-.07-1.16-.63-1.16-1.3v-22.22Zm5.59,7.12c0,.72,.58,1.3,1.3,1.3h.55c3,0,4.55-1.22,4.55-3.07s-1.44-2.89-4-2.89c-.45,0-.84,0-1.16,.03-.7,.03-1.25,.6-1.25,1.3v3.33Zm0,11.13c0,.71,.57,1.29,1.28,1.3,.27,0,.57,0,.91,0,2.55,0,4.81-1,4.81-3.63,0-2.48-2.26-3.48-5.07-3.48h-.62c-.72,0-1.3,.58-1.3,1.3v4.5Z" fill="#9ab29b"/>
      <path d="M622.3,963.88c0,8.21-4.92,13.14-12.25,13.14s-11.73-5.59-11.73-12.73,4.81-13.06,12.14-13.06,11.84,5.74,11.84,12.66Zm-18.02,.3c0,4.92,2.29,8.36,6.07,8.36s5.99-3.63,5.99-8.47c0-4.51-2.11-8.36-5.99-8.36s-6.07,3.63-6.07,8.47Z" fill="#9ab29b"/>
    </g>
  </g>
</svg>